<svg width="251" height="76" viewBox="0 0 251 76" fill="none" xmlns="http://www.w3.org/2000/svg">
<g clip-path="url(#clip0_102_2)">
<path d="M9.46812 69.0114C9.20778 68.76 8.90255 68.5805 8.56142 68.4638C8.2113 68.347 7.83425 68.2932 7.41232 68.2932H4.58447V75.5468H7.41232C7.8163 75.5468 8.20232 75.484 8.55244 75.3673C8.91153 75.2506 9.20778 75.0711 9.45915 74.8287C9.80926 74.4965 10.0247 74.1554 10.1145 73.8142C10.2043 73.4731 10.2491 73.0152 10.2491 72.4497V71.3904C10.2491 70.6901 10.1863 70.1784 10.0516 69.8552C9.91699 69.5321 9.71949 69.2448 9.45915 69.0024L9.46812 69.0114ZM8.34596 73.096C8.31903 73.2846 8.26516 73.4372 8.17539 73.5629C8.08562 73.6885 7.96891 73.7783 7.82528 73.8501C7.68164 73.922 7.50209 73.9579 7.27766 73.9579H6.45175V69.8732H7.27766C7.50209 69.8732 7.69062 69.9091 7.82528 69.9719C7.95994 70.0438 8.07664 70.1425 8.17539 70.2772C8.25619 70.3849 8.31005 70.5375 8.33698 70.735C8.36392 70.9325 8.38187 71.3185 8.38187 71.911C8.38187 72.5035 8.37289 72.8985 8.34596 73.0871V73.096ZM16.4704 75.5468H21.6503V73.9579H18.3467V72.6741H21.1656V71.0851H18.3467V69.8732H21.6503V68.2842H16.4704V75.5379V75.5468ZM36.2115 68.2932H34.3353V75.5468H39.4074V73.9579H36.2115V68.2932ZM47.4152 68.2932L44.6412 75.5468H46.5983L46.9753 74.4606H49.3184L49.6685 75.5468H51.6255L48.8516 68.2932H47.4062H47.4152ZM47.496 72.9793L48.1783 71.0492L48.8246 72.9793H47.496ZM61.3929 71.938L58.951 68.2932H57.3172V75.5468H59.1844V71.9021L61.6263 75.5468H63.2601V68.2932H61.3929V71.938ZM75.586 71.6327C75.3256 71.3814 74.8588 71.2198 74.1855 71.13L73.2698 71.0043C73.1352 70.9864 73.0274 70.9684 72.9466 70.9235C72.8658 70.8876 72.803 70.8427 72.7491 70.7889C72.6953 70.735 72.6594 70.6901 72.6324 70.6363C72.6055 70.5824 72.5965 70.5196 72.5965 70.4477C72.5965 70.2682 72.6684 70.1066 72.8299 69.9719C72.9915 69.8373 73.216 69.7744 73.5212 69.7744H73.6648C73.979 69.7744 74.2394 69.8103 74.4459 69.8822C74.6523 69.954 74.8229 70.0617 74.9665 70.1964L76.1426 69.0742C75.8194 68.76 75.4423 68.5445 75.0384 68.4099C74.6254 68.2752 74.1406 68.2124 73.5751 68.2124C72.7222 68.2124 72.0399 68.4278 71.5462 68.8498C71.0524 69.2807 70.8011 69.8283 70.8011 70.5016C70.8011 71.13 70.9716 71.6148 71.3218 71.9559C71.6629 72.2881 72.1746 72.5035 72.8569 72.6023L73.7815 72.728C73.9072 72.7459 74.015 72.7639 74.0868 72.7998C74.1676 72.8357 74.2394 72.8896 74.3202 72.9614C74.392 73.0332 74.4279 73.1679 74.4279 73.3474C74.4279 73.7783 74.0688 74.0027 73.3416 74.0027C73.0005 74.0027 72.6773 73.9579 72.3721 73.8771C72.0669 73.7963 71.8245 73.6706 71.636 73.491L70.442 74.6312C70.81 74.9903 71.232 75.2416 71.6898 75.3763C72.1477 75.5109 72.6953 75.5828 73.3327 75.5828C74.1765 75.5828 74.8768 75.3763 75.4334 74.9723C75.99 74.5683 76.2683 74.0117 76.2683 73.3025C76.2683 72.9524 76.2234 72.6382 76.1336 72.3779C76.0438 72.1175 75.8732 71.8572 75.6039 71.6148L75.586 71.6327ZM129.621 75.5468H134.801V73.9579H131.497V72.6741H134.316V71.0851H131.497V69.8732H134.801V68.2842H129.621V75.5379V75.5468ZM147.252 71.938L144.81 68.2932H143.177V75.5468H145.053V71.9021L147.495 75.5468H149.128V68.2932H147.252V71.938ZM166.921 72.3419L165.638 68.2932H163.699L166.212 75.5468H167.604L170.126 68.2932H168.178L166.913 72.3419H166.921ZM177.425 75.5468H182.605V73.9579H179.301V72.6741H182.12V71.0851H179.301V69.8732H182.605V68.2842H177.425V75.5379V75.5468ZM196.241 71.7854C196.484 71.4622 196.6 71.0761 196.6 70.6183C196.6 69.9809 196.367 69.4333 195.909 68.9755C195.451 68.5176 194.814 68.2842 193.997 68.2842H190.981V75.5379H192.848V72.8267H193.476L194.823 75.5379H196.995L195.353 72.5035C195.694 72.3419 195.99 72.0996 196.232 71.7764L196.241 71.7854ZM194.518 71.13C194.374 71.2736 194.177 71.3455 193.925 71.3455H192.866V69.8822H193.925C194.177 69.8822 194.374 69.954 194.518 70.0976C194.661 70.2413 194.733 70.4118 194.733 70.6093C194.733 70.8068 194.661 70.9774 194.518 71.121V71.13ZM206.395 70.1246C206.484 70.0168 206.583 69.936 206.709 69.8822C206.826 69.8283 206.978 69.8014 207.149 69.8014C207.445 69.8014 207.661 69.8732 207.804 70.0258C207.948 70.1784 208.055 70.3849 208.127 70.6542H210.031C209.896 69.8552 209.564 69.2448 209.043 68.8318C208.522 68.4189 207.885 68.2124 207.14 68.2124C206.709 68.2124 206.323 68.2842 205.973 68.4189C205.623 68.5535 205.282 68.778 204.967 69.0832C204.644 69.3884 204.447 69.7385 204.375 70.1335C204.303 70.5285 204.267 71.1121 204.267 71.8931C204.267 72.6741 204.303 73.2127 204.384 73.6257C204.465 74.0476 204.734 74.4696 205.201 74.9095C205.668 75.3493 206.314 75.5738 207.158 75.5738C207.912 75.5738 208.549 75.3763 209.07 74.9903C209.591 74.6042 209.914 74.0387 210.048 73.2935H208.145C208.073 73.509 207.966 73.6706 207.822 73.7963C207.678 73.922 207.463 73.9848 207.176 73.9848C206.853 73.9848 206.619 73.895 206.484 73.7334C206.35 73.5629 206.26 73.3654 206.215 73.1499C206.17 72.9255 206.152 72.5125 206.152 71.8931C206.152 71.2736 206.179 70.8786 206.224 70.6363C206.269 70.3939 206.341 70.2233 206.431 70.1156L206.395 70.1246ZM222.15 68.8857C221.683 68.4458 221.028 68.2214 220.184 68.2214C219.735 68.2214 219.34 68.2932 218.999 68.4278C218.658 68.5625 218.326 68.7869 218.002 69.0922C217.679 69.3974 217.482 69.7565 217.401 70.1515C217.329 70.5465 217.293 71.13 217.293 71.9021C217.293 72.6741 217.329 73.2217 217.41 73.6347C217.491 74.0566 217.76 74.4785 218.227 74.9184C218.694 75.3583 219.349 75.5828 220.193 75.5828C220.642 75.5828 221.037 75.5109 221.378 75.3763C221.719 75.2416 222.033 75.0351 222.32 74.7658C222.68 74.4247 222.904 74.0476 222.976 73.6526C223.048 73.2576 223.083 72.6741 223.083 71.8931C223.083 71.1121 223.048 70.5734 222.967 70.1605C222.886 69.7385 222.617 69.3166 222.15 68.8767V68.8857ZM221.144 73.1589C221.1 73.3833 221.01 73.5808 220.875 73.7514C220.74 73.922 220.507 74.0027 220.184 74.0027C220.031 74.0027 219.879 73.9668 219.744 73.904C219.609 73.8412 219.502 73.7514 219.412 73.6526C219.331 73.5449 219.259 73.3833 219.223 73.1589C219.178 72.9345 219.16 72.5215 219.16 71.911C219.16 71.3006 219.178 70.8786 219.223 70.6542C219.268 70.4298 219.331 70.2592 219.421 70.1515C219.511 70.0438 219.618 69.963 219.744 69.9001C219.87 69.8463 220.022 69.8103 220.184 69.8103C220.345 69.8103 220.498 69.8373 220.624 69.9001C220.758 69.963 220.857 70.0348 220.929 70.1335C221.028 70.2592 221.1 70.4298 221.144 70.6632C221.189 70.8966 221.207 71.3096 221.207 71.911C221.207 72.5125 221.189 72.9434 221.144 73.1589ZM236.145 71.7764C236.388 71.4532 236.514 71.0672 236.514 70.6093C236.514 69.9719 236.28 69.4243 235.822 68.9665C235.364 68.5086 234.727 68.2752 233.91 68.2752H230.894V75.5289H232.761V72.8177H233.389L234.736 75.5289H236.909L235.257 72.4946C235.598 72.333 235.894 72.0906 236.137 71.7674L236.145 71.7764ZM234.422 71.121C234.278 71.2647 234.081 71.3365 233.829 71.3365H232.77V69.8732H233.829C234.081 69.8732 234.278 69.945 234.422 70.0886C234.565 70.2323 234.637 70.4029 234.637 70.6004C234.637 70.7979 234.565 70.9684 234.422 71.1121V71.121ZM249.908 72.3868C249.818 72.1265 249.638 71.8662 249.378 71.6238C249.118 71.3814 248.651 71.2108 247.978 71.121L247.062 70.9954C246.927 70.9774 246.819 70.9594 246.739 70.9146C246.658 70.8786 246.595 70.8338 246.541 70.7799C246.487 70.726 246.451 70.6811 246.425 70.6273C246.398 70.5734 246.389 70.5106 246.389 70.4388C246.389 70.2592 246.469 70.0976 246.622 69.963C246.775 69.8283 247.008 69.7655 247.313 69.7655H247.457C247.771 69.7655 248.031 69.8014 248.238 69.8732C248.444 69.945 248.615 70.0527 248.759 70.1874L249.935 69.0652C249.611 68.751 249.234 68.5356 248.83 68.4009C248.417 68.2663 247.933 68.2034 247.367 68.2034C246.514 68.2034 245.832 68.4189 245.338 68.8408C244.844 69.2717 244.593 69.8193 244.593 70.4926C244.593 71.121 244.764 71.6058 245.114 71.9469C245.455 72.2791 245.976 72.4946 246.649 72.5933L247.565 72.719C247.69 72.737 247.798 72.7549 247.879 72.7908C247.96 72.8267 248.031 72.8806 248.112 72.9524C248.184 73.0242 248.22 73.1589 248.22 73.3384C248.22 73.7693 247.852 73.9938 247.125 73.9938C246.784 73.9938 246.46 73.9489 246.155 73.8681C245.85 73.7873 245.608 73.6616 245.419 73.4821L244.225 74.6222C244.593 74.9813 245.015 75.2326 245.473 75.3673C245.931 75.502 246.478 75.5738 247.116 75.5738C247.96 75.5738 248.66 75.3673 249.216 74.9633C249.773 74.5593 250.051 74.0028 250.051 73.2935C250.051 72.9434 250.006 72.6292 249.917 72.3689L249.908 72.3868Z" fill="#333F48"/>
<path d="M50.2972 43.5787C50.2972 41.1548 48.8788 40.8585 44.5159 40.8585C42.3164 40.8585 38.6627 41.3792 38.6627 41.3792C38.6627 41.3792 38.6986 41.9807 38.6986 42.2769V46.9092H42.3882V45.006C42.3882 43.9198 42.9807 42.9143 44.2106 42.9143C44.9917 42.9143 45.5123 43.3273 45.5123 44.1801V46.9092C45.5123 47.9506 45.0635 48.3995 43.4206 48.7406C42.6396 48.8932 41.9663 49.0369 41.1494 49.1536C39.4706 49.4139 38.2407 50.3835 38.2407 51.9186V58.077C38.2407 59.8725 40.108 60.7612 42.083 60.7612C43.7977 60.7612 45.9971 59.675 45.9971 59.675L46.8141 60.4201H50.7282C50.5396 59.675 50.2793 58.481 50.2793 57.5833V43.5787H50.2972ZM45.5213 56.9818C45.5213 57.9154 45.261 58.5169 44.2914 58.5169C43.4745 58.5169 43.0256 57.7359 43.0256 57.0267V52.6906C43.0256 51.4248 43.9593 50.5989 44.9647 50.5989H45.5213V56.9818ZM36.0143 34.35H30.6459C30.8704 35.3554 30.9781 36.0287 30.9781 37.0791V58.8131C30.9781 59.675 30.9063 59.9712 30.7896 60.4201H36.2747C36.0862 59.9353 36.0143 59.7109 36.0143 58.8131V34.359V34.35ZM57.8741 42.0076L57.2367 41.1458H52.766C52.8737 41.5947 52.9904 42.2321 52.9904 43.1298V58.7772C52.9904 59.6391 52.9186 59.9353 52.8019 60.3842H58.2871C58.0985 59.8994 58.0267 59.675 58.0267 58.7772V46.2359C58.0267 45.419 58.287 43.7313 61.6086 43.7313H62.1652V40.8226H61.2316C59.1758 40.8226 57.8741 42.0166 57.8741 42.0166V42.0076ZM21.0402 41.1817H15.7795C15.8872 41.6306 16.0039 42.268 16.0039 43.1657V58.8131C16.0039 59.675 15.9321 59.9712 15.8154 60.4201H21.3005C21.112 59.9353 21.0402 59.7109 21.0402 58.8131V41.1907V41.1817ZM11.0844 36.325C10.4111 43.6056 8.95671 54.917 8.95671 54.917H8.73228C8.73228 54.917 7.12534 43.5248 6.1917 36.1365C6.11989 35.4632 6.08398 34.341 6.08398 34.341H0.239746C0.239746 34.341 0.616793 35.5709 0.724521 36.2801C1.95442 43.5966 3.51647 53.9026 4.15386 58.2745C4.4142 59.657 4.4142 60.4021 4.4142 60.4021H10.7881C10.7881 60.4021 13.0235 43.821 14.1456 36.3968C14.2534 35.6158 14.7022 34.341 14.7022 34.341H11.0844C11.0844 34.341 11.1562 35.5709 11.0844 36.316V36.325ZM18.5086 35.9479C16.3451 35.9479 15.6359 36.5045 15.6359 37.7434C15.6359 39.0541 16.381 39.6107 18.4368 39.6107C20.4926 39.6107 21.3095 39.0541 21.3095 37.7434C21.3095 36.4327 20.4926 35.9479 18.5086 35.9479ZM71.1246 36.0198V41.2086C71.1246 41.2086 69.4458 40.8316 67.9556 40.8316C65.5317 40.8316 63.6645 41.469 63.6645 43.4799V57.8526C63.6645 59.3787 64.3018 60.5817 67.022 60.5817H72.0223C73.324 60.5817 76.0531 60.2405 76.0531 60.2405V34.3231H70.8732C70.945 34.6642 71.1336 35.3285 71.1336 36.0018L71.1246 36.0198ZM71.0887 57.1164C71.0887 58.0501 70.7924 58.4989 69.8229 58.4989C68.8533 58.4989 68.5571 58.0501 68.5571 57.0805V44.1263C68.5571 43.2645 69.0059 42.8605 69.8229 42.8605C70.568 42.8605 71.0887 43.2734 71.0887 44.1263V57.1164ZM28.3208 34.341H22.9524C23.1768 35.3465 23.2845 36.0198 23.2845 37.0701V58.8042C23.2845 59.666 23.2127 59.9622 23.096 60.4111H28.5811C28.3926 59.9263 28.3208 59.7019 28.3208 58.8042V34.35V34.341ZM174.193 41.9986L173.556 41.1368H169.085C169.193 41.5857 169.31 42.2231 169.31 43.1208V58.7683C169.31 59.6301 169.238 59.9263 169.121 60.3752H174.606C174.418 59.8904 174.346 59.666 174.346 58.7683V46.227C174.346 45.401 174.606 43.7223 177.928 43.7223H178.484V40.8136H177.551C175.495 40.8136 174.193 42.0076 174.193 42.0076V41.9986ZM216.072 57.0446C216.072 58.0501 215.624 58.463 214.771 58.463C214.026 58.463 213.505 58.1219 213.505 57.0446V44.5392C213.505 43.5338 213.801 42.8605 215.255 42.8605C216.71 42.8605 216.862 43.7941 216.862 44.5392V48.0494H220.776V41.2894C220.776 41.2894 219.547 40.8047 214.995 40.8047C210.183 40.8047 208.729 41.478 208.729 43.8659V57.305C208.729 59.5493 209.339 60.6445 212.751 60.6445L210.282 63.5442C210.776 63.7058 214.833 63.5891 214.833 63.5891L215.202 60.7163L215.399 60.6984C220.211 60.6984 221.028 59.7647 221.028 57.1523V52.6368H216.063V57.0446H216.072ZM185.532 40.8047C180.98 40.8047 179.301 41.1368 179.301 44.0904V57.1613C179.301 59.8455 180.199 60.7074 185.307 60.7074C190.756 60.7074 191.834 60.07 191.834 57.1613V52.6816H186.986V57.1972C186.986 58.095 186.654 58.5438 185.72 58.5438C184.786 58.5438 184.382 58.2476 184.382 57.278V50.6707H191.843V43.9826C191.843 41.0381 190.577 40.8136 185.541 40.8136L185.532 40.8047ZM186.95 48.8663H184.374V43.9377C184.374 43.1926 184.858 42.8156 185.675 42.8156C186.573 42.8156 186.941 43.1567 186.941 43.9018V48.8663H186.95ZM206.494 43.6774C206.494 41.9179 205.003 40.8047 202.463 40.8047C200.56 40.8047 198.881 41.7742 198.881 41.7742L198.324 41.1368H193.854C193.961 41.5857 194.078 42.2231 194.078 43.1208V58.7683C194.078 59.6301 194.006 59.9263 193.889 60.3752H199.366C199.177 59.8904 199.105 59.666 199.105 58.7683V44.2789C199.105 43.5697 199.554 42.9682 200.263 42.9682C201.08 42.9682 201.457 43.3812 201.457 44.2789V60.3752H206.754C206.565 59.8904 206.494 59.666 206.494 58.7683V43.6864V43.6774ZM151.301 40.8047C146.75 40.8047 145.035 41.1727 145.035 43.8659V57.305C145.035 59.9981 145.897 60.7074 151.005 60.7074C156.454 60.7074 157.083 59.8814 157.083 57.1613V43.9826C157.083 41.2176 155.853 40.8136 151.301 40.8136V40.8047ZM152.307 57.1613C152.307 58.2027 151.858 58.472 151.077 58.472C150.296 58.472 149.811 58.1758 149.811 57.1613V44.1263C149.811 43.3812 150.296 42.8605 151.041 42.8605C151.858 42.8605 152.307 43.3452 152.307 44.0904V57.1613ZM229.538 40.8047C224.987 40.8047 223.272 41.1727 223.272 43.8659V57.305C223.272 59.9981 224.134 60.7074 229.242 60.7074C234.682 60.7074 235.32 59.8814 235.32 57.1613V43.9826C235.32 41.2176 234.09 40.8136 229.538 40.8136V40.8047ZM230.544 57.1613C230.544 58.2027 230.095 58.472 229.314 58.472C228.533 58.472 228.048 58.1758 228.048 57.1613V44.1263C228.048 43.3812 228.533 42.8605 229.278 42.8605C230.095 42.8605 230.544 43.3452 230.544 44.0904V57.1613ZM129.45 37.519V56.8561C129.45 59.8455 130.384 60.7074 136.049 60.7074C142.126 60.7074 142.8 59.7378 142.8 56.6765V50.1411H137.503V56.6765C137.503 57.7987 137.243 58.2476 136.12 58.2476C135.079 58.2476 134.738 57.8705 134.738 56.6406V37.9319C134.738 36.6212 135.223 36.2891 136.489 36.2891C137.647 36.2891 138.095 36.702 138.095 37.9678V43.6056H142.791V37.6716C142.791 36.4417 142.827 35.2477 142.862 34.4218C141.597 34.2692 139.397 33.9729 136.336 33.9729C130.968 33.9729 129.441 34.4218 129.441 37.519H129.45ZM250.24 60.3662C250.051 59.8814 249.98 59.657 249.98 58.7593V43.6774C249.98 41.9179 248.489 40.8047 245.949 40.8047C244.046 40.8047 242.367 41.7742 242.367 41.7742L241.81 41.1368H237.34C237.447 41.5857 237.564 42.2231 237.564 43.1208V58.7683C237.564 59.6301 237.492 59.9263 237.376 60.3752H242.852C242.663 59.8904 242.591 59.666 242.591 58.7683V44.2789C242.591 43.5697 243.04 42.9682 243.749 42.9682C244.566 42.9682 244.943 43.3812 244.943 44.2789V60.3752H250.24V60.3662ZM164.21 41.9986L163.573 41.1368H159.102C159.21 41.5857 159.327 42.2231 159.327 43.1208V58.7683C159.327 59.6301 159.255 59.9263 159.138 60.3752H164.623C164.435 59.8904 164.363 59.666 164.363 58.7683V46.227C164.363 45.401 164.623 43.7223 167.945 43.7223H168.502V40.8136H167.568C165.512 40.8136 164.21 42.0076 164.21 42.0076V41.9986Z" fill="#333F48"/>
<path d="M91.8351 24.7621L84.2582 21.7996C80.7571 19.0615 76.8699 15.9464 76.3851 15.3988C76.3223 15.2731 76.2236 15.1654 76.0979 15.1025C75.9004 14.9948 75.5054 14.7704 72.902 15.6771L71.3399 15.0846L71.2771 15.0666C70.9449 14.9769 69.8227 14.6986 69.2661 14.8332C68.9968 14.8961 68.6916 15.0666 68.3415 15.2552C68.0362 15.4257 67.5335 15.713 67.345 15.713C67.0308 15.6771 65.8278 14.9589 64.9121 14.3215L64.8403 14.2677L62.4973 13.5225C61.6175 11.9784 60.9532 11.1076 60.5133 10.9461C60.0375 10.7665 57.9817 10.6767 56.8685 10.6318L52.8736 5.71231C52.2901 4.99413 51.3115 4.85947 50.5933 5.39811L46.9216 8.15414L46.4279 9.18653C44.4618 10.192 42.1547 11.2513 41.7238 11.2872C40.8619 11.2872 39.7577 12.5799 38.9408 13.747L37.2531 14.5729L33.5454 17.9843L33.1864 18.0202H33.0966L23.9128 19.0166C23.4639 18.9807 20.9952 19.5553 20.2411 19.6989C20.0795 19.7259 19.3254 19.5643 10.4379 26.6025L2.86103 27.9401C2.86103 27.9401 1.83762 28.1825 1.31694 28.5416C0.79625 28.9007 0.365339 29.7804 0.365339 29.7804C0.257611 29.9151 0.365339 30.1306 0.517953 30.0767C0.517953 30.0767 2.36728 29.179 2.8341 29.0712C3.30092 28.9545 10.9585 27.7336 10.9585 27.7336L11.0573 27.6618C14.334 25.2828 19.7832 21.2969 20.5283 20.8929C21.076 20.8211 22.9792 20.1747 23.8769 20.2465H23.9397L33.2582 19.2501H44.794L53.9239 22.3023L54.292 22.437L56.4555 23.1193L56.4914 22.9756C56.6351 22.3921 56.3298 21.7817 55.8181 21.6201L54.5972 21.234L54.1394 21.0904L44.9915 18.0291H35.305L37.9443 15.5963L39.7667 14.7165L39.8565 14.5819C40.5477 13.5764 41.4185 12.6248 41.7327 12.5171C42.5587 12.4991 45.4853 11.0538 47.173 10.192L47.3525 10.0932L47.8912 8.9621L51.3295 6.39459C51.527 6.24197 51.7604 6.28686 51.931 6.50232L56.276 11.8528H56.5543C57.9817 11.9066 59.6874 12.0054 60.0554 12.0951C60.3247 12.3196 61.034 13.4238 61.5546 14.3485L61.6713 14.5549L64.3017 15.3898C65.1815 16.0003 66.6717 16.9519 67.345 16.9519C67.8657 16.9519 68.4402 16.6287 68.9519 16.3414C69.1494 16.2337 69.4457 16.0631 69.5444 16.0452C69.715 16.0093 70.3704 16.108 70.9449 16.2606L72.893 16.9968L73.1084 16.9249C73.9882 16.6107 75.0745 16.2875 75.5054 16.2427C76.044 16.8262 77.7766 18.3164 83.567 22.832C83.567 22.832 89.1239 24.9506 89.51 25.0943C89.896 25.2379 92.6879 26.2793 92.6879 26.2793C92.8495 25.597 92.4276 24.9776 91.8261 24.7891L91.8351 24.7621ZM249.495 29.5829L229.359 17.0686L218.442 14.0791C218.047 13.9714 217.616 14.0522 217.302 14.3125C216.404 15.0307 214.474 16.5838 212.876 18.0381C210.812 19.9054 202.642 22.024 199.994 21.8894C198.118 21.7996 191.376 16.6377 187.246 13.1455L185.648 10.0753L176.743 0.990251C176.141 0.379794 175.252 0.164339 174.435 0.415703L161.131 4.67992L161.005 4.71583L154.784 11.0807L147.764 17.9304L130.842 25.6509L125.626 24.6454L115.158 25.8663C114.476 26.01 114.027 26.5486 114.216 27.0872C114.225 27.1142 125.59 25.7496 125.59 25.7496L130.976 26.791L148.303 18.891L148.392 18.8551L155.556 11.8617L161.598 5.68538L174.31 1.60968C175.019 1.38525 175.791 1.57378 176.312 2.10344L184.759 10.7216L186.384 13.8457L186.465 13.9175C187.542 14.8332 197.076 22.85 199.94 22.9936C202.867 23.1372 211.305 20.9557 213.612 18.8551C215.085 17.5264 216.719 16.1798 217.607 15.4706C217.886 15.2462 218.254 15.1654 218.604 15.2641L228.919 18.092L249.845 31.1001C250.168 30.5884 250.006 29.9151 249.504 29.6009L249.495 29.5829Z" fill="#333F48"/>
<path d="M117.78 74.7657C116.038 74.4425 112.106 73.9039 110.427 73.1678C109.404 72.7189 107.393 71.9917 106.738 69.4511C106.684 69.2447 106.648 68.9124 106.63 68.697C106.63 68.5982 106.63 68.5175 106.63 68.4636H106.621C106.486 66.6951 106.369 64.6841 106.226 62.0178C106.208 61.7126 106.495 61.4702 106.791 61.542C107.061 61.6049 107.249 61.6498 107.249 61.6498C107.429 61.6947 107.599 61.7395 107.779 61.7934C108.704 62.0538 113.417 64.0558 114.988 63.3376C114.988 63.3376 111.154 60.6534 111.28 60.6803C116.702 62.1257 123.103 58.5976 123.776 58.2834C123.794 58.2744 123.794 58.2474 123.776 58.2384C119.907 56.8918 115.957 52.053 116.038 52.071C118.498 52.6006 121.846 51.0836 121.514 51.0028C120.922 50.8592 119.369 50.0063 117.986 48.9201C117.052 48.1839 115.778 46.3974 115.778 46.3974L117.035 46.3615C117.51 46.3256 117.986 46.2628 118.471 46.164C118.848 46.0832 120.482 45.6882 121.254 45.0867C117.78 44.593 112.573 38.7937 112.573 38.7937C112.573 38.7937 113.722 38.8654 114.054 38.8564C115.051 38.8295 115.589 38.8565 116.469 38.5243C116.631 38.4525 117.196 38.0754 117.609 37.5816C114.961 37.1328 113.408 34.9962 111.513 32.4376L111.029 31.7733C111.029 31.7733 111.522 31.7913 111.971 31.7733C112.42 31.7464 112.941 31.4772 113.058 31.2886C110.768 30.5345 109.027 27.3835 108.928 27.2488L108.147 25.9471C108.147 25.9471 108.614 26.0728 109.143 26.0997C109.547 26.1177 109.924 26.0728 110.4 25.8304C108.802 24.6005 107.653 23.2629 106.756 21.243L106.657 20.9647L106.585 20.6954C106.262 19.5373 106.028 18.6306 105.741 17.5264C105.606 17.0506 105.49 16.5838 105.373 16.1349V16.108L105.364 16.0811C105.283 15.5963 105.184 15.0756 105.068 14.519C104.987 14.124 104.897 13.729 104.825 13.325C104.754 13.9265 104.646 14.51 104.556 15.0846C104.511 15.2911 104.466 15.4976 104.448 15.6951V15.722L104.439 15.7489C103.434 19.4835 101.908 25.0943 97.7241 26.1716C97.796 26.2254 97.8588 26.2703 97.9037 26.2883C98.4513 26.4858 99.0618 26.5576 99.5555 26.5127C100.301 26.4319 101.441 26.0459 101.441 26.0459L100.705 27.2219C99.1785 29.6548 97.365 31.0732 95.1387 31.54C95.1207 31.54 95.1028 31.5399 95.0758 31.5578C95.3631 31.7733 95.8748 31.9978 95.9556 32.0427C96.4673 32.2043 96.7366 32.2581 97.2573 32.285L98.3705 32.3568L97.6523 33.1917C96.5571 34.4396 95.3721 35.7593 93.6125 36.1543C93.5856 36.1543 93.5766 36.1991 93.6125 36.2081C93.9806 36.3428 94.8155 36.6659 95.2554 36.7826C95.8748 36.9442 97.2035 37.1866 97.2394 37.1866L97.8947 37.2765L97.3112 38.1024C95.5427 40.5891 93.6036 42.8783 90.7039 43.7761C91.3413 44.2249 91.8889 44.611 92.5801 44.8264C93.6036 45.1406 94.0973 45.2123 94.0973 45.2123L93.442 45.8857C91.3682 48.0313 88.9713 49.3958 86.3319 49.9613C85.9549 50.0421 85.5868 50.105 85.2008 50.1498C85.9998 50.7872 86.4307 51.2452 87.2476 51.6492C88.4057 52.2237 89.7972 52.2865 90.9822 52.2686L93.3163 52.1968L91.3772 54.5488C88.9533 57.0176 86.1614 58.5975 83.0822 59.2439C82.5615 59.3516 82.0318 59.4415 81.4932 59.4953C82.4897 60.5367 83.3156 61.1291 84.1594 61.4702C85.9459 62.1884 87.903 62.3231 89.5279 62.1525C89.5727 62.1435 89.6625 62.1526 89.7792 62.1257C90.3807 62.0718 91.7991 61.9371 92.6161 61.7666C92.9303 61.7037 97.3112 60.7252 97.3112 60.7252L93.6484 63.9031C93.5587 63.9749 93.4779 64.0378 93.3971 64.1097C93.7382 64.0648 94.0883 64.0018 94.4295 63.93C95.1566 63.7774 95.8479 63.571 96.3775 63.3017C96.979 63.0324 97.5177 62.727 98.0294 62.4488C98.9361 61.946 98.7476 62.0986 99.8338 61.3535C100.157 61.1381 100.444 60.8957 100.884 60.9944C101.082 61.0393 101.234 61.2368 101.225 61.4343C101.019 64.8816 100.777 68.0686 100.355 70.6003C99.8518 72.0456 98.3526 72.4047 97.392 72.8356C95.7312 73.5717 88.1723 74.8375 86.5743 75.1787C86.3858 75.2236 86.2511 75.394 86.2781 75.5915C86.296 75.798 86.4846 75.9507 86.691 75.9328C88.7558 75.7532 100.723 74.7118 104.879 74.7118C108.021 74.4515 115.598 75.3761 117.753 75.5466C117.959 75.5646 118.139 75.412 118.157 75.2055C118.175 75.008 118.04 74.8286 117.851 74.7926L117.78 74.7657Z" fill="#046A38"/>
</g>
<defs>
<clipPath id="clip0_102_2">
<rect width="251" height="76" fill="white"/>
</clipPath>
</defs>
</svg>